<svg width="144" height="144" viewBox="78 54 144 144" fill="none" xmlns="http://www.w3.org/2000/svg">
  <!-- Основной круг -->
  <circle cx="150" cy="126" r="72" fill="white"/>
  
  <!-- Голубая стрелка -->
  <path d="M182.4 127.5c-0.3 0-0.6-0.1-0.9-0.2l-18.1-8.1c-0.8-0.3-1.3-1.1-1.3-1.9 0-0.8 0.5-1.6 1.3-1.9l18.1-8.1c1.1-0.5 2.3 0 2.8 1 0.5 1.1 0 2.3-1 2.8l-13.8 6.1 13.8 6.2c0.9 0.4 1.4 1.4 1.2 2.4-0.2 0.9-1.1 1.6-2.1 1.6z" fill="#67BECE"/>
  
  <!-- Синяя волна -->
  <path d="M157.7 156.9c-20 0-37.4-13.4-42.4-32.6-0.3-1.1 0.4-2.3 1.5-2.6 1.1-0.3 2.3 0.4 2.6 1.5 4.5 17.4 20.3 29.5 38.3 29.5 1.2 0 2.1 0.9 2.1 2.1 0 1.2-0.9 2.1-2.1 2.1z" fill="#3F54A3"/>
  
  <!-- Голубая линия -->
  <path d="M150.4 139.4c-1.2 0-2.1-0.9-2.1-2.1V97.2c0-1.2 0.9-2.1 2.1-2.1 1.2 0 2.1 0.9 2.1 2.1v40c0 1.2-0.9 2.1-2.1 2.1z" fill="#67BECE"/>
</svg>